<svg xmlns="http://www.w3.org/2000/svg" viewBox="0 0 520 520" role="img" aria-label="Дружній AI помічник">
  <defs>
    <linearGradient id="body" x1="0" x2="1" y1="0" y2="1"><stop stop-color="#ffffff"/><stop offset="1" stop-color="#e8f0ed"/></linearGradient>
    <filter id="shadow" x="-20%" y="-20%" width="140%" height="140%"><feGaussianBlur stdDeviation="18"/></filter>
  </defs>
  <ellipse cx="260" cy="438" rx="160" ry="36" fill="#9cac98" opacity=".25" filter="url(#shadow)"/>
  <rect x="145" y="128" width="230" height="230" rx="86" fill="url(#body)" stroke="#d7e0dc" stroke-width="8"/>
  <rect x="184" y="194" width="152" height="74" rx="36" fill="#253128"/>
  <circle cx="230" cy="232" r="11" fill="#9ad7a4"/>
  <circle cx="290" cy="232" r="11" fill="#9ad7a4"/>
  <path d="M238 255 c18 14 42 14 60 0" fill="none" stroke="#9ad7a4" stroke-width="6" stroke-linecap="round"/>
  <path d="M145 250 h-38 c-24 0 -43 19 -43 43 v20 c0 24 19 43 43 43 h38" fill="#f7fbf9" stroke="#d7e0dc" stroke-width="8"/>
  <path d="M375 250 h38 c24 0 43 19 43 43 v20 c0 24 -19 43 -43 43 h-38" fill="#f7fbf9" stroke="#d7e0dc" stroke-width="8"/>
  <path d="M206 358 v44 M314 358 v44" stroke="#cdd8d3" stroke-width="14" stroke-linecap="round"/>
  <rect x="176" y="396" width="168" height="52" rx="26" fill="#fff" stroke="#d7e0dc" stroke-width="8"/>
  <path d="M92 400 c-4 -82 18 -139 78 -174" stroke="#6f8e68" stroke-width="7" fill="none" stroke-linecap="round"/>
  <ellipse cx="142" cy="248" rx="34" ry="16" fill="#8ba77f" transform="rotate(-26 142 248)"/>
  <ellipse cx="102" cy="318" rx="30" ry="14" fill="#8ba77f" transform="rotate(28 102 318)"/>
</svg>
