<svg xmlns="http://www.w3.org/2000/svg" viewBox="0 0 720 460" role="img" aria-label="Людина біля вікна у спокійному світлі">
  <defs><linearGradient id="sky" x1="0" x2="1" y1="0" y2="1"><stop stop-color="#ffe6c2"/><stop offset=".52" stop-color="#f7f1e8"/><stop offset="1" stop-color="#d9e9df"/></linearGradient></defs>
  <rect width="720" height="460" fill="url(#sky)"/>
  <rect x="70" y="52" width="290" height="302" rx="10" fill="#fffaf1" opacity=".82"/>
  <path d="M215 60 v288 M80 205 h270" stroke="#e0cdb8" stroke-width="9"/>
  <path d="M0 358 C130 312 232 310 340 338 C496 379 586 324 720 292 L720 460 L0 460 Z" fill="#799469"/>
  <circle cx="512" cy="170" r="52" fill="#30383b"/>
  <path d="M454 400 c10 -112 34 -180 92 -180 c72 0 98 72 108 180z" fill="#e9ddd0"/>
  <path d="M468 258 c56 48 110 48 163 0" fill="none" stroke="#c0a88f" stroke-width="12" stroke-linecap="round"/>
  <path d="M536 222 c-8 38 -4 70 16 104" stroke="#30383b" stroke-width="12" stroke-linecap="round"/>
  <circle cx="522" cy="156" r="8" fill="#f3c6ad"/>
</svg>
