<svg xmlns="http://www.w3.org/2000/svg" viewBox="0 0 900 620" role="img" aria-labelledby="title">
  <title id="title">Social media comparison</title>
  <rect width="900" height="620" rx="34" fill="#eaf0f8"/>
  <path d="M0 462 C118 398 255 452 390 418 C560 372 720 430 900 372 L900 620 L0 620Z" fill="#496f9f"/>
  <rect x="120" y="78" width="250" height="430" rx="38" fill="#25333b"/>
  <rect x="148" y="126" width="194" height="314" rx="18" fill="#fffaf0"/>
  <circle cx="246" cy="218" r="46" fill="#f1b59d"/>
  <path d="M182 350 C190 288 214 263 247 263 C280 263 305 289 314 350Z" fill="#8fb9aa"/>
  <path d="M522 155 H750M522 220 H695M522 286 H785" stroke="#fffaf0" stroke-width="18" stroke-linecap="round"/>
  <path d="M500 410 C560 350 660 360 720 430" fill="none" stroke="#d8a84f" stroke-width="18" stroke-linecap="round"/>
  <circle cx="720" cy="430" r="28" fill="#d66b5d"/>
</svg>
