<svg xmlns="http://www.w3.org/2000/svg" viewBox="0 0 900 620" role="img" aria-labelledby="title">
  <title id="title">Self esteem and gentle reflection</title>
  <rect width="900" height="620" rx="34" fill="#f7efd7"/>
  <path d="M0 450 C150 390 260 455 410 415 C585 368 710 435 900 365 L900 620 L0 620Z" fill="#d8a84f"/>
  <rect x="540" y="78" width="230" height="330" rx="115" fill="#fffaf0"/>
  <rect x="582" y="126" width="146" height="230" rx="73" fill="#e9f2ed"/>
  <circle cx="320" cy="290" r="64" fill="#e9aa8e"/>
  <path d="M226 525 C238 400 274 348 321 348 C372 348 414 407 426 525Z" fill="#2f6654"/>
  <path d="M262 254 C286 202 357 209 385 250 C340 238 309 260 292 306 C277 292 266 274 262 254Z" fill="#26343c"/>
  <path d="M525 470 C590 510 702 510 768 470" fill="none" stroke="#fffaf0" stroke-width="16" stroke-linecap="round"/>
  <path d="M166 152 H410M166 205 H356" stroke="#d66b5d" stroke-width="18" stroke-linecap="round"/>
</svg>
