<svg xmlns="http://www.w3.org/2000/svg" viewBox="0 0 720 520" role="img" aria-label="Підтримка під час булінгу">
  <defs><linearGradient id="b" x1="0" x2="1" y1="0" y2="1"><stop stop-color="#fff6ea"/><stop offset="1" stop-color="#dcebdd"/></linearGradient></defs>
  <rect width="720" height="520" fill="url(#b)"/>
  <rect x="70" y="72" width="580" height="360" rx="28" fill="#fffdf8" stroke="#e3d8c9" stroke-width="8"/>
  <path d="M136 356c54-72 118-108 192-108s130 36 176 108" fill="none" stroke="#6f8e68" stroke-width="18" stroke-linecap="round"/>
  <circle cx="328" cy="180" r="58" fill="#2f3a32"/>
  <path d="M278 206c12 44 86 44 100 0" fill="#e9c6aa"/>
  <path d="M282 185c24 18 70 18 94 0" fill="none" stroke="#f1d5bf" stroke-width="9" stroke-linecap="round"/>
  <g fill="#c98f73" opacity=".95">
    <rect x="112" y="116" width="134" height="42" rx="21"/>
    <rect x="476" y="120" width="112" height="38" rx="19"/>
    <rect x="494" y="176" width="78" height="34" rx="17"/>
  </g>
  <g fill="#fffdf8" opacity=".85">
    <circle cx="154" cy="137" r="5"/><circle cx="178" cy="137" r="5"/><circle cx="202" cy="137" r="5"/>
    <circle cx="522" cy="139" r="5"/><circle cx="546" cy="139" r="5"/>
  </g>
  <path d="M145 400c32-44 72-58 118-42" fill="none" stroke="#d6aa63" stroke-width="12" stroke-linecap="round"/>
  <path d="M455 398c38-45 82-56 132-34" fill="none" stroke="#5b7894" stroke-width="12" stroke-linecap="round"/>
</svg>
