<svg xmlns="http://www.w3.org/2000/svg" viewBox="0 0 720 520" role="img" aria-label="Самотність і теплий контакт">
  <defs><linearGradient id="l" x1="0" x2="1" y1="0" y2="1"><stop stop-color="#fff8ed"/><stop offset="1" stop-color="#e5efe4"/></linearGradient></defs>
  <rect width="720" height="520" fill="url(#l)"/>
  <rect x="86" y="78" width="548" height="352" rx="28" fill="#fffdf8" stroke="#e3d8c9" stroke-width="8"/>
  <circle cx="312" cy="208" r="62" fill="#30383b"/>
  <path d="M250 385c18-86 62-132 132-132s112 46 132 132" fill="#e8d8c8"/>
  <path d="M288 249c24 30 76 30 102 0" fill="none" stroke="#e9c6aa" stroke-width="22" stroke-linecap="round"/>
  <g fill="#dfe9da" stroke="#6f8e68" stroke-width="5">
    <rect x="444" y="118" width="130" height="68" rx="24"/>
    <path d="M476 185l-22 32 46-28"/>
  </g>
  <path d="M480 146h54M480 166h32" stroke="#496b4b" stroke-width="7" stroke-linecap="round"/>
  <path d="M158 184c38-42 78-42 118 0" fill="none" stroke="#d6aa63" stroke-width="11" stroke-linecap="round"/>
  <path d="M512 356c35-40 72-42 112-8" fill="none" stroke="#c98f73" stroke-width="11" stroke-linecap="round"/>
  <text x="360" y="462" text-anchor="middle" font-family="Arial, sans-serif" font-size="24" fill="#657064" font-weight="700">ти не зайва</text>
</svg>
